<?xml version="1.0" encoding="iso-8859-1"?>
<!-- Generator: Adobe Illustrator 16.0.0, SVG Export Plug-In . SVG Version: 6.00 Build 0)  -->
<!DOCTYPE svg PUBLIC "-//W3C//DTD SVG 1.1//EN" "http://www.w3.org/Graphics/SVG/1.1/DTD/svg11.dtd">
<svg xmlns="http://www.w3.org/2000/svg" xmlns:xlink="http://www.w3.org/1999/xlink" version="1.1" id="Capa_1" x="0px" y="0px" width="512px" height="512px" viewBox="0 0 936 936" style="enable-background:new 0 0 936 936;" xml:space="preserve">
<g>
	<path d="M655.6,108.107l-510.1,300c-1.7,1-3.2,1.5-4.7,3.5H298l398.2-234.3c19-11.2,25.399-35.8,14.2-54.9   C699.2,103.307,674.7,96.907,655.6,108.107z" fill="#D80027"/>
	<path d="M916,650.507h-13v-201.6c0-3.7-0.8-7.4-2.8-10.601l-69.101-110.6c-3.699-5.8-9.899-9.2-16.8-9.2H531.5   c-10.8,0-19.5,8.7-19.5,19.5v103.5H250.7H108.9H53.5c-11.3,0-20.5,9.2-20.5,20.5v27.5h25v86H33v75H20c-11,0-20,9-20,20v47   c0,11,9,20,20,20h13h19.7h53.7c0.1,0,1.4,8,1.5,8.7c1.6,8,4.2,15.7,7.6,23.1c3,6.5,6.7,12.8,10.9,18.601   c4.2,5.8,9,11.199,14.3,16.1c5.3,4.9,11,9.3,17.2,13.1c6.2,3.801,12.8,7,19.6,9.601c7,2.6,14.2,4.399,21.5,5.5   c5.3,0.8,10.7,1.2,16.1,1.2c29.5,0,58.2-12.4,78.6-33.7c16.8-17.4,26.399-39.5,30.1-63.2h312.8c-0.699,0.3,2.5,14.5,2.9,16   c12.6,46,55.1,80.9,105.6,80.9c29.5,0,58.101-12.4,78.601-33.601c16.5-17.1,26.6-38.899,30-62.3H916c11,0,20-9,20-20v-47   C936,659.507,927,650.507,916,650.507z M119,575.507v-86h4.6h44.7H185v86H119z M312,575.507h-66v-86h66V575.507z M440,575.507h-67   v-86h67V575.507z M567,575.507h-66v-86h66V575.507z M830.8,524.507H676.5c-8.3,0-15.5-6.7-15.5-15v-124.3c0-8.3,7.2-14.7,15.5-14.7   h114.4c5.1,0,9.899,2.4,12.6,6.8l39.8,62.3c1.5,2.4,2.3,5.101,2.4,8l0.1,62C845.8,517.807,839.1,524.507,830.8,524.507z    M260.1,723.507c0,8.3-2.2,16-6.1,22.7c-7.8,13.3-22.3,22.3-38.9,22.3c-24.9,0-45-20.1-45-45s20.1-45,45-45   S260.1,698.606,260.1,723.507z M790,723.507c0,8.3-2.2,16-6.1,22.7c-7.801,13.3-22.301,22.3-38.9,22.3c-24.9,0-45-20.1-45-45   s20.1-45,45-45S790,698.606,790,723.507z" fill="#D80027"/>
</g>
<g>
</g>
<g>
</g>
<g>
</g>
<g>
</g>
<g>
</g>
<g>
</g>
<g>
</g>
<g>
</g>
<g>
</g>
<g>
</g>
<g>
</g>
<g>
</g>
<g>
</g>
<g>
</g>
<g>
</g>
</svg>
