<?xml version="1.0" encoding="UTF-8" standalone="no"?>
<!-- Created with Inkscape (http://www.inkscape.org/) -->

<svg
   xmlns:dc="http://purl.org/dc/elements/1.1/"
   xmlns:cc="http://creativecommons.org/ns#"
   xmlns:rdf="http://www.w3.org/1999/02/22-rdf-syntax-ns#"
   xmlns:svg="http://www.w3.org/2000/svg"
   xmlns="http://www.w3.org/2000/svg"
   xmlns:sodipodi="http://sodipodi.sourceforge.net/DTD/sodipodi-0.dtd"
   xmlns:inkscape="http://www.inkscape.org/namespaces/inkscape"
   width="50"
   height="50"
   viewBox="0 0 50.000001 50.000001"
   id="svg2"
   version="1.1"
   inkscape:version="0.91 r13725"
   sodipodi:docname="polygon_legend.svg">
  <defs
     id="defs4">
    <inkscape:path-effect
       effect="spiro"
       id="path-effect3354"
       is_visible="true" />
  </defs>
  <sodipodi:namedview
     id="base"
     pagecolor="#ffffff"
     bordercolor="#666666"
     borderopacity="1.0"
     inkscape:pageopacity="0.0"
     inkscape:pageshadow="2"
     inkscape:zoom="7.9195959"
     inkscape:cx="-2.8377893"
     inkscape:cy="22.983548"
     inkscape:document-units="px"
     inkscape:current-layer="layer1"
     showgrid="false"
     units="px"
     inkscape:snap-global="false"
     inkscape:window-width="1366"
     inkscape:window-height="715"
     inkscape:window-x="-8"
     inkscape:window-y="-8"
     inkscape:window-maximized="1" />
  <metadata
     id="metadata7">
    <rdf:RDF>
      <cc:Work
         rdf:about="">
        <dc:format>image/svg+xml</dc:format>
        <dc:type
           rdf:resource="http://purl.org/dc/dcmitype/StillImage" />
        <dc:title />
      </cc:Work>
    </rdf:RDF>
  </metadata>
  <g
     inkscape:label="Ebene 1"
     inkscape:groupmode="layer"
     id="layer1"
     transform="translate(0,-1002.3622)">
    <path
       style="fill:#0033ff;fill-rule:evenodd;stroke:#0033ff;stroke-width:1.5;stroke-linecap:butt;stroke-linejoin:miter;stroke-opacity:1;stroke-miterlimit:4;stroke-dasharray:none;fill-opacity:0.627451"
       d="m 11.364216,1013.3451 c -1.090424,0.7692 -2.0103868,1.7857 -2.6354032,2.9648 -0.6250164,1.179 -0.9507944,2.5202 -0.9001306,3.8537 0.050484,1.3288 0.4683539,2.6239 1.0600499,3.8147 0.591696,1.1909 1.3550129,2.2873 2.1355169,3.3638 1.561007,2.1531 3.250671,4.3513 3.749232,6.9636 0.326565,1.7111 0.118147,3.5124 0.631345,5.1771 0.600931,1.9492 2.176197,3.5193 4.040528,4.3469 1.86433,0.8276 3.988395,0.9592 6.000392,0.6237 4.023994,-0.6709 7.502434,-3.0756 11.046015,-5.0969 1.638155,-0.9344 3.344169,-1.8174 4.671955,-3.1567 0.8598,-0.8673 1.538215,-1.9085 2.020305,-3.0305 0.654225,-1.5227 0.944878,-3.1717 1.262691,-4.7982 0.142008,-0.7268 0.291124,-1.4667 0.207313,-2.2025 -0.04191,-0.3679 -0.14335,-0.7317 -0.323966,-1.0549 -0.180617,-0.3232 -0.442845,-0.6047 -0.76723,-0.7832 -0.355957,-0.1959 -0.774931,-0.2614 -1.179737,-0.2267 -0.404806,0.035 -0.796836,0.1658 -1.162826,0.3423 -0.73198,0.3528 -1.364001,0.8832 -2.076855,1.2733 -0.289284,0.1583 -0.593458,0.2938 -0.914364,0.3697 -0.320906,0.076 -0.660109,0.091 -0.979672,0.01 -0.399156,-0.1016 -0.746657,-0.3455 -1.062385,-0.6101 -0.315727,-0.2645 -0.611682,-0.5557 -0.95792,-0.7788 -0.761075,-0.4904 -1.699024,-0.6117 -2.603642,-0.649 -0.904617,-0.037 -1.823977,-0 -2.699659,-0.2349 -0.73623,-0.1934 -1.427454,-0.5762 -1.952841,-1.127 -0.525387,-0.5508 -0.878607,-1.272 -0.951347,-2.0297 -0.05672,-0.5909 0.05532,-1.1907 0.271574,-1.7435 0.261718,-0.669 0.669919,-1.2686 1.05674,-1.874 0.38682,-0.6053 0.760141,-1.2336 0.939273,-1.9293 0.226345,-0.8791 0.12285,-1.8319 -0.247282,-2.6608 -0.302329,-0.677 -0.779656,-1.2753 -1.374049,-1.7186 -0.594393,-0.4432 -1.304648,-0.7301 -2.040424,-0.8218 -0.735776,-0.092 -1.495335,0.013 -2.178338,0.3011 -0.683004,0.2886 -1.287616,0.7611 -1.730795,1.3555 -0.261416,0.3506 -0.476907,0.752 -0.835298,1.0027 -0.231006,0.1616 -0.509121,0.249 -0.789877,0.2745 -0.280757,0.025 -0.564566,-0.01 -0.838445,-0.076 -0.54776,-0.1336 -1.055763,-0.393 -1.589682,-0.5742 -1.049054,-0.3559 -2.193722,-0.4021 -3.280289,-0.1863 -1.086566,0.2158 -2.115262,0.6885 -3.020473,1.3271 z"
       id="path3352"
       inkscape:path-effect="#path-effect3354"
       inkscape:original-d="m 11.364216,1013.3451 c -1.6691668,1.9413 -2.9290125,4.3312 -3.5355338,6.8185 -0.5783282,2.3717 4.6388168,13.3409 6.9447988,14.1421 15.116738,5.2522 -3.997577,4.723 0.631345,5.1771 17.425132,1.1364 19.30395,0.4682 21.086935,-0.1263 0.757614,-0.2526 3.813519,-2.2982 4.671955,-3.1567 0.631346,-0.6314 1.4973,-1.4615 2.020305,-3.0305 0.378808,-1.1364 1.262691,-3.4195 1.262691,-4.7982 0,-1.0102 0.308827,-3.349 -0.883883,-4.0406 -1.335848,-0.7746 -2.923609,1.0055 -4.419418,1.3889 -0.623681,0.1599 -1.163079,0.7443 -1.894036,0.3788 -1.262691,-0.6313 -0.336061,-0.7764 -2.020305,-1.3889 -1.38896,-0.5051 -3.923876,-0.5077 -5.303301,-0.8839 -1.38896,-0.3788 -3.284823,-2.0147 -2.904188,-3.1567 0.252538,-0.7577 -0.620897,-0.5535 0.271574,-1.7435 0.757614,-1.0102 2.781609,-2.8606 1.996013,-3.8033 -0.631346,-0.7576 1.776757,-2.2561 -0.247282,-2.6608 -2.525381,-0.505 -6.401279,-0.9761 -7.323606,-0.8838 -1.262691,0.1263 0.304046,1.4585 -0.835298,1.0027 -1.26269,-0.5051 -1.702619,-1.184 -3.218004,-0.3757 -1.894036,1.0102 -5.181042,-0.1615 -6.300762,1.1408 z"
       inkscape:connector-curvature="0"
       sodipodi:nodetypes="ssscsssssssssssssssss" />
  </g>
</svg>
